<mxfile host="app.diagrams.net" modified="2022-11-16T16:35:28.385Z" agent="5.0 (X11)" etag="U4yDQXUXOl4if0bU1OOT" version="20.5.1" type="github">
  <diagram id="qmMPe1LgRIODwBDEmFfd" name="Page-1">
    <mxGraphModel dx="1434" dy="790" grid="1" gridSize="10" guides="1" tooltips="1" connect="1" arrows="1" fold="1" page="1" pageScale="1" pageWidth="850" pageHeight="1100" math="0" shadow="0">
      <root>
        <mxCell id="0" />
        <mxCell id="1" parent="0" />
        <mxCell id="PqGD6W6tbpFCIzeSCL69-1" value="Actor" style="shape=umlActor;verticalLabelPosition=bottom;verticalAlign=top;html=1;outlineConnect=0;" vertex="1" parent="1">
          <mxGeometry x="410" y="100" width="310" height="340" as="geometry" />
        </mxCell>
      </root>
    </mxGraphModel>
  </diagram>
</mxfile>
